<?xml version="1.0" encoding="UTF-8"?>
<svg width="144px" height="96px" viewBox="0 0 144 96" version="1.1" xmlns="http://www.w3.org/2000/svg" xmlns:xlink="http://www.w3.org/1999/xlink">
    <title>go_b</title>
    <defs>
        <polygon id="path-1" points="0 0 19.4603924 0 19.4603924 22.1367006 0 22.1367006"></polygon>
        <polygon id="path-3" points="0 0 20.8796342 0 20.8796342 18.3825354 0 18.3825354"></polygon>
        <polygon id="path-5" points="0 0 3.20152743 0 3.20152743 21.5434929 0 21.5434929"></polygon>
    </defs>
    <g id="go_b" stroke="none" stroke-width="1" fill="none" fill-rule="evenodd">
        <g id="Group-22" transform="translate(30.000000, 22.000000)">
            <g id="Group-3" transform="translate(0.351394, 0.000000)">
                <mask id="mask-2" fill="white">
                    <use xlink:href="#path-1"></use>
                </mask>
                <g id="Clip-2"></g>
                <path d="M15.5422799,13.2356835 L12.9518999,13.2356835 C12.8132691,13.2356835 12.6915602,13.1815033 12.5874244,13.0744331 C12.4832885,12.9667179 12.4312205,12.8480377 12.4312205,12.7190375 L12.4312205,11.1716795 C12.4312205,11.0252642 12.4832885,10.900779 12.5874244,10.7975788 C12.6915602,10.6943786 12.8132691,10.6421335 12.9518999,10.6421335 L15.5422799,10.6421335 L15.5422799,8.66907467 L12.9518999,8.66907467 C12.8132691,8.66907467 12.6915602,8.61489457 12.5874244,8.50782436 C12.4832885,8.40010915 12.4312205,8.28142893 12.4312205,8.15242868 L12.4312205,6.59152568 C12.4312205,6.4457554 12.4832885,6.32320516 12.5874244,6.22451997 C12.6915602,6.12583478 12.8132691,6.07552468 12.9518999,6.07552468 L15.5422799,6.07552468 L15.5422799,1.28961548 C15.5422799,1.15287522 15.5943479,1.03419499 15.6984838,0.935509799 C15.8026196,0.836179608 15.9243284,0.786514513 16.0629593,0.786514513 L18.4841185,0.786514513 C18.6312104,0.786514513 18.7555226,0.836179608 18.8551026,0.935509799 C18.9546825,1.03419499 19.0047979,1.15287522 19.0047979,1.28961548 L19.0047979,15.6350881 C19.0047979,15.7808583 18.9546825,15.9059886 18.8551026,16.0091888 C18.7555226,16.112389 18.6312104,16.1633441 18.4841185,16.1633441 L16.0629593,16.1633441 C15.9243284,16.1633441 15.8026196,16.112389 15.6984838,16.0091888 C15.5943479,15.9059886 15.5422799,15.7808583 15.5422799,15.6350881 L15.5422799,13.2356835 Z M3.9571634,9.89393203 C3.9571634,10.2557777 4.03070936,10.5931134 4.17845214,10.907229 C4.32619492,11.2206996 4.56896169,11.4748301 4.9074033,11.6676854 C5.2458449,11.8611858 5.70599532,11.958581 6.28720369,11.958581 C6.885985,11.958581 7.35459645,11.8611858 7.69303806,11.6676854 C8.03147966,11.4748301 8.27424643,11.2206996 8.42198921,10.907229 C8.56908114,10.5931134 8.64327795,10.2557777 8.64327795,9.89393203 C8.64327795,9.53337633 8.56908114,9.19539568 8.42198921,8.88192508 C8.27424643,8.56780948 8.03147966,8.31367899 7.69303806,8.12017862 C7.35459645,7.92732324 6.885985,7.82992806 6.28720369,7.82992806 C5.70599532,7.82992806 5.2458449,7.92732324 4.9074033,8.12017862 C4.56896169,8.31367899 4.32619492,8.56780948 4.17845214,8.88192508 C4.03070936,9.19539568 3.9571634,9.53337633 3.9571634,9.89393203 L3.9571634,9.89393203 Z M3.90509546,21.0266534 C3.60114886,20.820898 3.36944653,20.5757976 3.20868677,20.291352 C3.04792701,20.0081965 2.96787255,19.6940809 2.96787255,19.3496502 L2.96787255,16.0607889 C2.96787255,15.9143736 3.02189304,15.7918234 3.13058486,15.6931382 C3.23927668,15.593808 3.3583821,15.5441429 3.4879011,15.5441429 L5.96177907,15.5441429 C6.12644393,15.5441429 6.25661378,15.593808 6.35228862,15.6931382 C6.44731261,15.7918234 6.49547545,15.9143736 6.49547545,16.0607889 L6.49547545,18.8723493 C6.49547545,19.0535946 6.55600443,19.2064599 6.67771324,19.3303002 C6.7987712,19.4554304 6.94651397,19.5173505 7.12029072,19.5173505 L18.939713,19.5173505 C19.0868049,19.5173505 19.2111171,19.5650806 19.3106971,19.6598958 C19.410277,19.754066 19.4603924,19.8746812 19.4603924,20.0210965 L19.4603924,21.6335996 C19.4603924,21.7703399 19.410277,21.8890201 19.3106971,21.9877053 C19.2111171,22.0870355 19.0868049,22.1367006 18.939713,22.1367006 L6.13099987,22.1367006 C5.93118916,22.1367006 5.7229174,22.1063855 5.5061846,22.0457554 C5.28880095,21.9857703 5.10721401,21.8999851 4.95947123,21.7883999 L3.90509546,21.0266534 Z M0.689900198,9.89393203 C0.689900198,9.38696105 0.787527585,8.87289506 0.982782358,8.35302406 C1.17803713,7.83250806 1.49239732,7.36165716 1.92651376,6.93982635 C2.35997936,6.51864054 2.93533009,6.17936988 3.65061341,5.92072439 C4.36719842,5.66336889 5.2458449,5.53436864 6.28720369,5.53436864 C7.34548456,5.53436864 8.23129038,5.66336889 8.9426686,5.92072439 C9.65404683,6.17936988 10.2293976,6.51864054 10.6674191,6.93982635 C11.1054406,7.36165716 11.4243568,7.83250806 11.6235166,8.35302406 C11.8233274,8.87289506 11.9235581,9.38696105 11.9235581,9.89393203 C11.9235581,10.409933 11.8233274,10.931094 11.6235166,11.454835 C11.4243568,11.979866 11.1054406,12.4526519 10.6674191,12.8738378 C10.2293976,13.2956686 9.65404683,13.6330042 8.9426686,13.8871347 C8.23129038,14.1406202 7.34548456,14.2676854 6.28720369,14.2676854 C5.2458449,14.2676854 4.36719842,14.1406202 3.65061341,13.8871347 C2.93533009,13.6330042 2.35997936,13.2956686 1.92651376,12.8738378 C1.49239732,12.4526519 1.17803713,11.979866 0.982782358,11.454835 C0.787527585,10.931094 0.689900198,10.409933 0.689900198,9.89393203 L0.689900198,9.89393203 Z M4.58197867,2.42481766 L4.58197867,0.529159018 C4.58197867,0.365973704 4.63599916,0.236973456 4.74469098,0.141513272 C4.85273196,0.047343091 4.97248822,-0.000387000744 5.10265807,-0.000387000744 L7.58890218,-0.000387000744 C7.745106,-0.000387000744 7.86876735,0.047343091 7.95988625,0.141513272 C8.05100514,0.236973456 8.09656459,0.365973704 8.09656459,0.529159018 L8.09656459,2.42481766 L12.1969148,2.42481766 C12.3446576,2.42481766 12.4676681,2.47448276 12.5678989,2.57381295 C12.6674788,2.67249814 12.7175942,2.79117837 12.7175942,2.92856363 L12.7175942,4.33402133 C12.7175942,4.48108162 12.6674788,4.60298685 12.5678989,4.70231704 C12.4676681,4.80100223 12.3446576,4.85066733 12.1969148,4.85066733 L0.520679395,4.85066733 C0.381397657,4.85066733 0.260339697,4.80100223 0.156203818,4.70231704 C0.0520679395,4.60298685 0,4.48108162 0,4.33402133 L0,2.92856363 C0,2.79117837 0.0520679395,2.67249814 0.156203818,2.57381295 C0.260339697,2.47448276 0.381397657,2.42481766 0.520679395,2.42481766 L4.58197867,2.42481766 Z" id="Fill-1" fill="#000000" mask="url(#mask-2)"></path>
            </g>
            <path d="M36.0306236,10.8748499 L36.0306236,21.5689705 C36.0306236,21.7063557 35.9811591,21.826326 35.8815791,21.9301712 C35.7813483,22.0333714 35.657687,22.0849715 35.5099442,22.0849715 L33.4272266,22.0849715 C33.2794839,22.0849715 33.1538699,22.0333714 33.0497341,21.9301712 C32.946249,21.826326 32.8941811,21.7063557 32.8941811,21.5689705 L32.8941811,1.39333168 C32.8941811,1.2469164 32.946249,1.12694617 33.0497341,1.03148598 C33.1538699,0.937315803 33.2794839,0.890230712 33.4272266,0.890230712 L35.5099442,0.890230712 C35.657687,0.890230712 35.7813483,0.937315803 35.8815791,1.03148598 C35.9811591,1.12694617 36.0306236,1.2469164 36.0306236,1.39333168 L36.0306236,8.2690449 L37.9571374,8.2690449 L37.9571374,1.29013148 C37.9571374,1.1437162 38.0092053,1.02374597 38.1133412,0.928930786 C38.2174771,0.834760605 38.3391859,0.786385512 38.4784676,0.786385512 L40.6386362,0.786385512 C40.786379,0.786385512 40.9100404,0.834760605 41.0096203,0.928930786 C41.1098511,1.02374597 41.1593156,1.1437162 41.1593156,1.29013148 L41.1593156,21.826326 C41.1593156,21.9727413 41.1098511,22.0933565 41.0096203,22.1881717 C40.9100404,22.2829869 40.786379,22.3300719 40.6386362,22.3300719 L38.4784676,22.3300719 C38.3391859,22.3300719 38.2174771,22.2829869 38.1133412,22.1881717 C38.0092053,22.0933565 37.9571374,21.9727413 37.9571374,21.826326 L37.9571374,10.8748499 L36.0306236,10.8748499 Z M32.8941811,17.5441627 C31.4271669,17.689933 30.2510823,17.8060332 29.3665782,17.8924634 C28.4807724,17.9782486 27.7980315,18.0401687 27.3157522,18.0795138 C26.8341238,18.1175688 26.4761567,18.1440139 26.241851,18.1569139 C26.0081961,18.1698139 25.8083854,18.175619 25.6430697,18.175619 C25.4354488,18.175619 25.2180651,18.1459489 24.9922204,18.0859638 C24.7663757,18.0259787 24.5756769,17.9395485 24.4194731,17.8273183 L23.4047991,17.0926619 C23.1177746,16.8778765 22.8880248,16.626326 22.7142481,16.3380104 C22.5404713,16.0496949 22.4545592,15.7291292 22.4545592,15.3763136 L22.4545592,2.11573307 C22.4545592,1.9783478 22.5040238,1.85966758 22.6036037,1.76098239 C22.7031836,1.6622972 22.8274959,1.6126321 22.9745878,1.6126321 L30.3812522,1.6126321 C30.5198831,1.6126321 30.6422427,1.6622972 30.7457277,1.76098239 C30.8498636,1.85966758 30.9019316,1.9783478 30.9019316,2.11573307 L30.9019316,3.67663607 C30.9019316,3.81402133 30.8498636,3.93399157 30.7457277,4.03719176 C30.6422427,4.14103696 30.5198831,4.19263706 30.3812522,4.19263706 L25.7211716,4.19263706 L25.7211716,14.7964575 C25.7211716,14.9764128 25.7888599,15.1273431 25.9235857,15.2473133 C26.0576606,15.3685736 26.207356,15.4285587 26.3720208,15.4285587 L32.3728509,15.4285587 C32.5290547,15.4285587 32.657272,15.3763136 32.7575028,15.2731134 C32.8564318,15.1705582 32.9019913,15.0499429 32.8941811,14.9125577 L32.8941811,17.5441627 Z" id="Fill-4" fill="#000000"></path>
            <path d="M58.1594979,22.3299429 C58.0117551,22.3299429 57.8880937,22.2828579 57.7891647,22.1880427 C57.688283,22.0932275 57.6388185,21.9726123 57.6388185,21.826842 L57.6388185,1.29000248 C57.6388185,1.1435872 57.688283,1.02361697 57.7891647,0.928801786 C57.8880937,0.834631605 58.0117551,0.786901513 58.1594979,0.786901513 L60.5936741,0.786901513 C60.7323049,0.786901513 60.8546646,0.834631605 60.9581496,0.928801786 C61.0622855,1.02361697 61.1143534,1.1435872 61.1143534,1.29000248 L61.1143534,7.53361449 C61.1143534,7.66261474 61.1664214,7.77677996 61.2705573,7.87546515 C61.3746931,7.97415033 61.491846,8.02381543 61.6220159,8.02381543 L63.6786995,8.02381543 C63.8264422,8.02381543 63.9520561,8.07154552 64.0568429,8.1657157 C64.1603279,8.26053089 64.2123958,8.38050112 64.2123958,8.5269164 L64.2123958,10.3071198 C64.2123958,10.4445051 64.1603279,10.5631853 64.0568429,10.6618705 C63.9520561,10.7605557 63.8264422,10.8102208 63.6786995,10.8102208 L61.6220159,10.8102208 C61.491846,10.8102208 61.3746931,10.8598859 61.2705573,10.9585711 C61.1664214,11.0572563 61.1143534,11.1798065 61.1143534,11.3255768 L61.1143534,21.826842 C61.1143534,21.9726123 61.0622855,22.0932275 60.9581496,22.1880427 C60.8546646,22.2828579 60.7323049,22.3299429 60.5936741,22.3299429 L58.1594979,22.3299429 Z M50.5705957,11.6229224 L43.9709844,11.6229224 C43.8238924,11.6229224 43.6995802,11.5732573 43.6000003,11.4745721 C43.5004204,11.3758869 43.450305,11.2572066 43.450305,11.1198214 L43.450305,9.57181841 C43.450305,9.42540313 43.5004204,9.30349789 43.6000003,9.2041677 C43.6995802,9.10548251 43.8238924,9.05581742 43.9709844,9.05581742 L50.5705957,9.05581742 L50.5705957,4.8375093 C50.5705957,4.64852394 50.5120193,4.49565865 50.3948664,4.37955842 C50.2783644,4.2634582 50.1325742,4.20540809 49.9587974,4.20540809 L43.8928825,4.20540809 C43.7542516,4.20540809 43.6331936,4.15122798 43.5290577,4.04415778 C43.424271,3.93644257 43.3722031,3.81002233 43.3722031,3.66360705 L43.3722031,2.11560407 C43.3722031,1.9782188 43.424271,1.86018358 43.5290577,1.76085339 C43.6331936,1.6621682 43.7542516,1.6125031 43.8928825,1.6125031 L50.8439524,1.6125031 C51.0353021,1.6125031 51.2409704,1.64281816 51.4622592,1.70280327 C51.6835479,1.76278839 51.8677382,1.84470355 52.0161319,1.94790375 L53.0705076,2.72190523 C53.3653424,2.91992062 53.5944413,3.16244108 53.759757,3.45011163 C53.9244219,3.73907219 54.0070797,4.0551228 54.0070797,4.39890846 L54.0070797,15.7638303 C54.0070797,16.116646 53.9335337,16.4217316 53.785791,16.6797321 C53.638699,16.9377326 53.4258713,17.1867031 53.1479587,17.4279335 L51.4687677,18.9243364 C51.3041028,19.0707517 51.1127531,19.1049367 50.8960203,19.0275366 C50.6792875,18.9501364 50.5705957,18.7779211 50.5705957,18.5115356 L50.5705957,11.6229224 Z" id="Fill-6" fill="#000000"></path>
            <path d="M70.0304674,4.24410816 L70.0304674,9.94591913 C70.0304674,10.1174895 70.0916472,10.2619697 70.213356,10.37807 C70.334414,10.4941702 70.4815059,10.5522203 70.6559335,10.5522203 L82.1883313,10.5522203 C82.3354232,10.5522203 82.4603863,10.6012404 82.5593153,10.7005706 C82.6595461,10.7992558 82.7090107,10.926321 82.7090107,11.0811213 L82.7090107,12.7065244 C82.7090107,12.8439097 82.6595461,12.9645249 82.5593153,13.0677251 C82.4603863,13.1709253 82.3354232,13.2225254 82.1883313,13.2225254 L69.7187106,13.2225254 C69.518249,13.2225254 69.3060722,13.1902754 69.0808784,13.1257752 C68.8543828,13.0612751 68.6727959,12.977425 68.534165,12.8742248 L67.4667722,12.0873232 C67.1888596,11.8809228 66.96692,11.6358224 66.8022552,11.3520218 C66.6375903,11.0682213 66.5549324,10.7586207 66.5549324,10.42322 L66.5549324,2.12850409 C66.5549324,1.97305879 66.6050478,1.84470355 66.7052786,1.74150335 C66.8042077,1.63830315 66.932425,1.58670305 67.0886288,1.58670305 L82.0327783,1.58670305 C82.1883313,1.58670305 82.3165486,1.63830315 82.4167794,1.74150335 C82.5163593,1.84470355 82.5658238,1.97305879 82.5658238,2.12850409 L82.5658238,3.72810717 C82.5658238,3.85710742 82.5163593,3.97514264 82.4167794,4.08285785 C82.3165486,4.19057306 82.1883313,4.24410816 82.0327783,4.24410816 L70.0304674,4.24410816 Z M64.6544527,19.9434384 C64.5151709,19.9434384 64.3921604,19.8937733 64.2834686,19.7950881 C64.1747768,19.6964029 64.1207563,19.5738526 64.1207563,19.4274374 L64.1207563,17.8149343 C64.1207563,17.668519 64.1747768,17.5459687 64.2834686,17.4472836 C64.3921604,17.3479534 64.5151709,17.2989333 64.6544527,17.2989333 L84.4663036,17.2989333 C84.6133955,17.2989333 84.7396603,17.3479534 84.8437962,17.4472836 C84.9479321,17.5459687 85,17.668519 85,17.8149343 L85,19.4274374 C85,19.5738526 84.9479321,19.6964029 84.8437962,19.7950881 C84.7396603,19.8937733 84.6133955,19.9434384 84.4663036,19.9434384 L64.6544527,19.9434384 Z" id="Fill-8" fill="#000000"></path>
            <g id="Group-12" transform="translate(0.000000, 31.269596)">
                <mask id="mask-4" fill="white">
                    <use xlink:href="#path-3"></use>
                </mask>
                <g id="Clip-11"></g>
                <path d="M2.96761221,2.61870504 C2.81986943,2.61870504 2.69425553,2.56968494 2.59011965,2.47035475 C2.48663462,2.37166956 2.43456668,2.25363433 2.43456668,2.11560407 L2.43456668,0.503100968 C2.43456668,0.365715703 2.48663462,0.247035475 2.59011965,0.148350285 C2.69425553,0.0496650955 2.81986943,0 2.96761221,0 L15.2816799,0 C15.4990635,0 15.7131929,0.0303150583 15.9260206,0.0903001737 C16.1388483,0.15093029 16.3191336,0.236715455 16.4662255,0.34830067 L17.5206013,1.10940213 C17.815436,1.31580253 18.0432332,1.560903 18.203993,1.84470355 C18.3647528,2.12850409 18.4448072,2.4426197 18.4448072,2.78640536 L18.4448072,12.7065244 C18.4448072,12.8445547 18.3946918,12.9625899 18.2957627,13.0612751 C18.1948811,13.1606053 18.0673147,13.2096254 17.9111108,13.2096254 L15.4639177,13.2096254 C15.3252868,13.2096254 15.2042288,13.1606053 15.100093,13.0612751 C14.9953062,12.9625899 14.9432383,12.8445547 14.9432383,12.7065244 L14.9432383,3.26370628 C14.9432383,3.08310593 14.8853127,2.93024064 14.767509,2.8057554 C14.6503561,2.68127016 14.5091218,2.61870504 14.344457,2.61870504 L2.96761221,2.61870504 Z M6.85969069,15.7509303 L6.85969069,8.50111635 C6.85969069,8.34631605 6.90980608,8.21989581 7.00938601,8.12056562 C7.10896595,8.02188043 7.23327815,7.97221533 7.38037008,7.97221533 L9.84123107,7.97221533 C9.988323,7.97221533 10.1119844,8.02188043 10.2115643,8.12056562 C10.3111442,8.21989581 10.3612596,8.34631605 10.3612596,8.50111635 L10.3612596,15.7509303 L20.345287,15.7509303 C20.4930298,15.7509303 20.6186437,15.8005954 20.7227796,15.8992806 C20.8269154,15.9979658 20.8796342,16.121161 20.8796342,16.2669313 L20.8796342,17.8665344 C20.8796342,18.0129496 20.8269154,18.1354999 20.7227796,18.2341851 C20.6186437,18.3328703 20.4930298,18.3825354 20.345287,18.3825354 L0.534086889,18.3825354 C0.394805151,18.3825354 0.270492946,18.3328703 0.162451971,18.2341851 C0.0537601475,18.1354999 -0.000260339697,18.0129496 -0.000260339697,17.8665344 L-0.000260339697,16.2669313 C-0.000260339697,16.121161 0.0537601475,15.9979658 0.162451971,15.8992806 C0.270492946,15.8005954 0.394805151,15.7509303 0.534086889,15.7509303 L6.85969069,15.7509303 Z" id="Fill-10" fill="#000000" mask="url(#mask-4)"></path>
            </g>
            <path d="M28.077376,45.1500223 L26.1248283,45.1500223 C25.9601634,45.1500223 25.8163257,45.0900372 25.6952678,44.969422 C25.573559,44.8488067 25.5136809,44.7030365 25.5136809,44.5308211 L25.5136809,33.8238005 L28.077376,33.8238005 L28.077376,45.1500223 Z M35.809465,30.5600943 L33.7397644,30.5600943 C33.6004827,30.5600943 33.4774722,30.6071794 33.3687804,30.7019945 C33.2600885,30.7968097 33.2060681,30.917425 33.2060681,31.0631952 L33.2060681,37.7970082 L31.1754184,37.7970082 L31.1754184,31.7855966 C31.1754184,31.6482114 31.1279064,31.5301761 31.0322316,31.4308459 C30.9372076,31.3321608 30.8154988,31.2824957 30.667756,31.2824957 L22.8575651,31.2824957 C22.7098223,31.2824957 22.586161,31.3321608 22.486581,31.4308459 C22.3870011,31.5301761 22.3368857,31.6482114 22.3368857,31.7855966 L22.3368857,44.9049219 C22.3368857,45.2661226 22.4149876,45.5866882 22.5711914,45.8659737 C22.7273952,46.1459042 22.9532399,46.3929397 23.2480746,46.6077251 L24.3154674,47.3559266 C24.4547491,47.4681568 24.6343835,47.5539419 24.8556723,47.6139271 C25.076961,47.6739122 25.2871853,47.7042272 25.4876469,47.7042272 L30.667756,47.7042272 C30.8063869,47.7042272 30.9261432,47.6552071 31.0257231,47.555877 C31.1259539,47.4571918 31.1754184,47.3391565 31.1754184,47.2011263 L31.1754184,40.4415133 L33.2060681,40.4415133 L33.2060681,51.238834 C33.2060681,51.3762193 33.2600885,51.4948995 33.3687804,51.5935847 C33.4774722,51.6929149 33.6004827,51.74645 33.7397644,51.754835 L35.809465,51.754835 C35.9656689,51.754835 36.0912828,51.7032349 36.1869576,51.6000347 C36.2819816,51.4968345 36.3301444,51.3762193 36.3301444,51.238834 L36.3301444,31.0631952 C36.3301444,30.917425 36.2819816,30.7968097 36.1869576,30.7019945 C36.0912828,30.6071794 35.9656689,30.5600943 35.809465,30.5600943 L35.809465,30.5600943 Z" id="Fill-13" fill="#000000"></path>
            <g id="Group-17" transform="translate(37.957398, 30.456507)">
                <mask id="mask-6" fill="white">
                    <use xlink:href="#path-5"></use>
                </mask>
                <g id="Clip-16"></g>
                <path d="M3.05248295,0.142545274 C2.95290302,0.048375093 2.82859081,0 2.68149888,0 L0.520679395,0 C0.381397657,0 0.260339697,0.048375093 0.156203818,0.142545274 C0.0520679395,0.236715455 0,0.357330687 0,0.503745969 L0,21.0399405 C0,21.1863557 0.0520679395,21.306971 0.156203818,21.4017862 C0.260339697,21.4959563 0.381397657,21.5436864 0.520679395,21.5436864 L2.68149888,21.5436864 C2.82859081,21.5436864 2.95290302,21.4959563 3.05248295,21.4017862 C3.15206289,21.306971 3.20152743,21.1863557 3.20152743,21.0399405 L3.20152743,0.503745969 C3.20152743,0.357330687 3.15206289,0.236715455 3.05248295,0.142545274" id="Fill-15" fill="#000000" mask="url(#mask-6)"></path>
            </g>
            <path d="M50.2844824,37.8484148 C50.9437927,37.8484148 51.4794416,37.7432796 51.89208,37.5330092 C52.3040676,37.3220938 52.6099667,37.0357132 52.8097774,36.6751575 C53.0095882,36.3133118 53.1091681,35.9269561 53.1091681,35.5135103 C53.1091681,35.0839395 53.0095882,34.6904887 52.8097774,34.333803 C52.6099667,33.9764723 52.3040676,33.6933168 51.89208,33.4817564 C51.4794416,33.270841 50.9437927,33.1657058 50.2844824,33.1657058 C49.6420942,33.1657058 49.1103503,33.270841 48.6899017,33.4817564 C48.2688023,33.6933168 47.9609506,33.9764723 47.7656958,34.333803 C47.570441,34.6904887 47.4728136,35.0839395 47.4728136,35.5135103 C47.4728136,35.9269561 47.570441,36.3133118 47.7656958,36.6751575 C47.9609506,37.0357132 48.2688023,37.3220938 48.6899017,37.5330092 C49.1103503,37.7432796 49.6420942,37.8484148 50.2844824,37.8484148 L50.2844824,37.8484148 Z M50.2844824,40.4155197 C48.904682,40.4155197 47.752028,40.1968643 46.827822,39.7576185 C45.904267,39.3190176 45.2117634,38.7301315 44.7522638,37.9909601 C44.2921134,37.2511436 44.0617128,36.425542 44.0617128,35.5135103 C44.0617128,34.6369536 44.2921134,33.8261871 44.7522638,33.0818556 C45.2117634,32.3381692 45.904267,31.740253 46.827822,31.2887522 C47.752028,30.8372513 48.904682,30.6115009 50.2844824,30.6115009 C51.6727438,30.6115009 52.824747,30.8372513 53.7404919,31.2887522 C54.6562367,31.740253 55.3480895,32.3381692 55.8167009,33.0818556 C56.2853124,33.8261871 56.5196181,34.6369536 56.5196181,35.5135103 C56.5196181,36.425542 56.2853124,37.2511436 55.8167009,37.9909601 C55.3480895,38.7301315 54.6562367,39.3190176 53.7404919,39.7576185 C52.824747,40.1968643 51.6727438,40.4155197 50.2844824,40.4155197 L50.2844824,40.4155197 Z M48.7745121,44.5822277 L43.6842202,44.8408732 C43.5455893,44.8492582 43.421928,44.7995932 43.313887,44.6918779 C43.2051952,44.5841627 43.1511747,44.4622575 43.1511747,44.3242272 L43.1511747,42.4924237 C43.1511747,42.3550385 43.2051952,42.2350682 43.313887,42.131868 C43.421928,42.0280228 43.5455893,41.9764227 43.6842202,41.9764227 L58.2118262,41.9764227 C58.350457,41.9764227 58.4721659,41.9338526 58.5763017,41.8474225 C58.6797868,41.7616373 58.7318547,41.6500521 58.7318547,41.5126668 L58.7318547,30.9598015 C58.7318547,30.8224163 58.7845735,30.704381 58.8887094,30.6056959 C58.9928453,30.5063657 59.1139032,30.4567006 59.2531849,30.4567006 L61.7003781,30.4567006 C61.839009,30.4567006 61.960067,30.5063657 62.0648537,30.6056959 C62.1689896,30.704381 62.2210575,30.8224163 62.2210575,30.9598015 L62.2210575,51.496641 C62.2210575,51.6340263 62.1689896,51.7527065 62.0648537,51.8513917 C61.960067,51.9500769 61.839009,51.999742 61.7003781,51.999742 L59.2531849,51.999742 C59.1139032,51.999742 58.9928453,51.9500769 58.8887094,51.8513917 C58.7845735,51.7527065 58.7318547,51.6340263 58.7318547,51.496641 L58.7318547,44.0926718 L52.2630641,44.4274274 L52.2630641,51.496641 C52.2630641,51.6340263 52.2129487,51.7527065 52.1133687,51.8513917 C52.013138,51.9500769 51.8855715,51.999742 51.7293677,51.999742 L49.3082085,51.999742 C49.1689268,51.999742 49.0459163,51.9500769 48.9372244,51.8513917 C48.8285326,51.7527065 48.7745121,51.6340263 48.7745121,51.496641 L48.7745121,44.5822277 Z" id="Fill-18" fill="#000000"></path>
            <path d="M79.0648407,40.6482362 L67.0755468,40.6482362 C66.9369159,40.6482362 66.8158579,40.5940561 66.711722,40.4869859 C66.6069353,40.3792707 66.5548674,40.2605904 66.5548674,40.1315902 L66.5548674,38.481032 C66.5548674,38.3255867 66.6069353,38.2011015 66.711722,38.1069313 C66.8158579,38.0121161 66.9369159,37.965031 67.0755468,37.965031 L79.0648407,37.965031 L79.0648407,34.5336244 C79.0648407,34.3523791 79.0062642,34.2046738 78.8891114,34.0879286 C78.7713077,33.9718283 78.6300734,33.9144232 78.4660594,33.9144232 L67.0755468,33.9144232 C66.9369159,33.9144232 66.8158579,33.8621781 66.711722,33.7589779 C66.6069353,33.6557777 66.5548674,33.5396775 66.5548674,33.4106773 L66.5548674,31.734319 C66.5548674,31.6046738 66.6069353,31.4872836 66.711722,31.3795683 C66.8158579,31.2718531 66.9369159,31.218318 67.0755468,31.218318 L79.4156484,31.218318 C79.6154591,31.218318 79.8263343,31.2525031 80.047623,31.3208732 C80.2689118,31.3898884 80.4531021,31.4679335 80.600194,31.5530737 L81.6552207,32.3399752 C81.9507062,32.5463756 82.1778526,32.7940561 82.3379615,33.0823716 C82.4980704,33.3706872 82.5794266,33.6860928 82.5794266,34.0298784 L82.5794266,45.0464996 C82.5794266,45.1845299 82.5286603,45.3051451 82.4297313,45.4083453 C82.3295005,45.5109005 82.2058391,45.5625006 82.0587472,45.5625006 L79.5848692,45.5625006 C79.4553502,45.5625006 79.3355939,45.5109005 79.227553,45.4083453 C79.1182103,45.3051451 79.0648407,45.1845299 79.0648407,45.0464996 L79.0648407,40.6482362 Z M64.6543876,49.6131084 C64.5157567,49.6131084 64.3920953,49.5634433 64.2834035,49.4654031 C64.1747117,49.3667179 64.1206912,49.2435227 64.1206912,49.0977524 L64.1206912,47.4852493 C64.1206912,47.338834 64.1747117,47.2162838 64.2834035,47.1169536 C64.3920953,47.0182684 64.5157567,46.9692483 64.6543876,46.9692483 L84.4662385,46.9692483 C84.6133305,46.9692483 84.7395952,47.0182684 84.8437311,47.1169536 C84.947867,47.2162838 84.9999349,47.338834 84.9999349,47.4852493 L84.9999349,49.0977524 C84.9999349,49.2435227 84.947867,49.3667179 84.8437311,49.4654031 C84.7395952,49.5634433 84.6133305,49.6131084 84.4662385,49.6131084 L64.6543876,49.6131084 Z" id="Fill-20" fill="#000000"></path>
        </g>
    </g>
</svg>