<?xml version="1.0" encoding="UTF-8"?>
<svg width="144px" height="96px" viewBox="0 0 144 96" version="1.1" xmlns="http://www.w3.org/2000/svg" xmlns:xlink="http://www.w3.org/1999/xlink">
    <title>ho_b</title>
    <defs>
        <polygon id="path-1" points="0 0 19.4603924 0 19.4603924 22.4949307 0 22.4949307"></polygon>
        <polygon id="path-3" points="0 0 20.8791136 0 20.8791136 14.2241804 0 14.2241804"></polygon>
        <polygon id="path-5" points="0 0 19.1610017 0 19.1610017 22.0494132 0 22.0494132"></polygon>
    </defs>
    <g id="ho_b" stroke="none" stroke-width="1" fill="none" fill-rule="evenodd">
        <g id="Group-22" transform="translate(30.000000, 22.000000)">
            <g id="Group-3" transform="translate(0.351394, 0.000000)">
                <mask id="mask-2" fill="white">
                    <use xlink:href="#path-1"></use>
                </mask>
                <g id="Clip-2"></g>
                <path d="M15.5422799,13.4495554 L12.9518999,13.4495554 C12.8132691,13.4495554 12.6915602,13.3951521 12.5874244,13.2856899 C12.4839393,13.1762278 12.4318714,13.0562782 12.4318714,12.9251858 L12.4318714,11.3520771 C12.4318714,11.2032872 12.4839393,11.076783 12.5874244,10.9719091 C12.6915602,10.8670352 12.8132691,10.8145983 12.9518999,10.8145983 L15.5422799,10.8145983 L15.5422799,8.8088846 L12.9518999,8.8088846 C12.8132691,8.8088846 12.6915602,8.75448126 12.5874244,8.64501911 C12.4839393,8.53621242 12.4318714,8.41560742 12.4318714,8.28451502 L12.4318714,6.69829704 C12.4318714,6.55016263 12.4839393,6.42496939 12.5874244,6.32468371 C12.6915602,6.22439803 12.8132691,6.17392745 12.9518999,6.17392745 L15.5422799,6.17392745 L15.5422799,1.31039958 C15.5422799,1.17078618 15.5943479,1.05018118 15.6984838,0.949895497 C15.8026196,0.849609815 15.9243284,0.799139242 16.0636102,0.799139242 L18.4841185,0.799139242 C18.6312104,0.799139242 18.7555226,0.849609815 18.8551026,0.949895497 C18.9546825,1.05018118 19.0047979,1.17078618 19.0047979,1.31039958 L19.0047979,15.887874 C19.0047979,16.0366638 18.9546825,16.163168 18.8551026,16.2680419 C18.7555226,16.3729158 18.6312104,16.4253528 18.4841185,16.4253528 L16.0636102,16.4253528 C15.9243284,16.4253528 15.8026196,16.3729158 15.6984838,16.2680419 C15.5943479,16.163168 15.5422799,16.0366638 15.5422799,15.887874 L15.5422799,13.4495554 Z M3.9571634,10.0542624 C3.9571634,10.4213211 4.03070936,10.7641277 4.17845214,11.0833377 C4.32619492,11.4025476 4.56961254,11.6601442 4.9074033,11.8567828 C5.2458449,12.0534214 5.70599532,12.1517407 6.28720369,12.1517407 C6.885985,12.1517407 7.35459645,12.0534214 7.69303806,11.8567828 C8.03147966,11.6601442 8.27489728,11.4025476 8.42264006,11.0833377 C8.56973199,10.7641277 8.64327795,10.4213211 8.64327795,10.0542624 C8.64327795,9.68720365 8.56973199,9.34439704 8.42264006,9.02518705 C8.27489728,8.70663253 8.03147966,8.44838051 7.69303806,8.25174192 C7.35459645,8.05510333 6.885985,7.95678403 6.28720369,7.95678403 C5.70599532,7.95678403 5.2458449,8.05510333 4.9074033,8.25174192 C4.56961254,8.44838051 4.32619492,8.70663253 4.17845214,9.02518705 C4.03070936,9.34439704 3.9571634,9.68720365 3.9571634,10.0542624 L3.9571634,10.0542624 Z M3.90509546,21.3675361 C3.60114886,21.1577882 3.36944653,20.9087127 3.20933762,20.6203094 C3.04792701,20.3319062 2.96787255,20.0133516 2.96787255,19.6633349 L2.96787255,16.3204789 C2.96787255,16.171689 3.02254389,16.0478067 3.13058486,15.9468655 C3.23927668,15.8465798 3.3583821,15.7961093 3.48855194,15.7961093 L5.96177907,15.7961093 C6.12644393,15.7961093 6.25661378,15.8465798 6.35293946,15.9468655 C6.44796345,16.0478067 6.49547545,16.171689 6.49547545,16.3204789 L6.49547545,19.1782931 C6.49547545,19.3618224 6.55600443,19.5171669 6.67836409,19.6436711 C6.7987712,19.7708307 6.94651397,19.8337551 7.12094157,19.8337551 L18.9403638,19.8337551 C19.0874558,19.8337551 19.2111171,19.8816038 19.3106971,19.9779567 C19.410277,20.0736541 19.4603924,20.1962255 19.4603924,20.3450154 L19.4603924,21.9836703 C19.4603924,22.1232837 19.410277,22.2438887 19.3106971,22.3441744 C19.2111171,22.4444601 19.0874558,22.4949307 18.9403638,22.4949307 L6.13099987,22.4949307 C5.93118916,22.4949307 5.7229174,22.464124 5.5061846,22.403166 C5.28880095,22.3415526 5.10721401,22.2550316 4.95947123,22.1409812 L3.90509546,21.3675361 Z M0.689900198,10.0542624 C0.689900198,9.53841378 0.787527585,9.01666605 0.983433207,8.48770823 C1.17803713,7.95875042 1.49239732,7.48091864 1.92651376,7.0522465 C2.35997936,6.62422983 2.93598094,6.27880137 3.65126426,6.01661658 C4.36719842,5.75443179 5.2458449,5.62333939 6.28720369,5.62333939 C7.34548456,5.62333939 8.23129038,5.75443179 8.9426686,6.01661658 C9.65404683,6.27880137 10.2293976,6.62422983 10.6674191,7.0522465 C11.1060915,7.48091864 11.4250076,7.95875042 11.6241675,8.48770823 C11.8239782,9.01666605 11.9235581,9.53841378 11.9235581,10.0542624 C11.9235581,10.5786319 11.8239782,11.1075898 11.6241675,11.6404803 C11.4250076,12.1740264 11.1060915,12.65448 10.6674191,13.0824967 C10.2293976,13.5111688 9.65404683,13.8539754 8.9426686,14.111572 C8.23129038,14.3691686 7.34548456,14.4982946 6.28720369,14.4982946 C5.2458449,14.4982946 4.36719842,14.3691686 3.65126426,14.111572 C2.93598094,13.8539754 2.35997936,13.5111688 1.92651376,13.0824967 C1.49239732,12.65448 1.17803713,12.1740264 0.983433207,11.6404803 C0.787527585,11.1075898 0.689900198,10.5786319 0.689900198,10.0542624 L0.689900198,10.0542624 Z M4.58197867,2.46401266 L4.58197867,0.536954452 C4.58197867,0.371122571 4.63599916,0.240030176 4.74469098,0.143677265 C4.85273196,0.0479798167 4.97248822,-0.000524369582 5.10265807,-0.000524369582 L7.58890218,-0.000524369582 C7.745106,-0.000524369582 7.86876735,0.0479798167 7.95988625,0.143677265 C8.05100514,0.240030176 8.09721544,0.371122571 8.09721544,0.536954452 L8.09721544,2.46401266 L12.1969148,2.46401266 C12.3446576,2.46401266 12.468319,2.51382777 12.5678989,2.61476892 C12.6681297,2.7150546 12.7175942,2.8356596 12.7175942,2.97527301 L12.7175942,4.40418012 C12.7175942,4.55296998 12.6681297,4.67750776 12.5678989,4.77779344 C12.468319,4.87873459 12.3446576,4.9285497 12.1969148,4.9285497 L0.520679395,4.9285497 C0.382048506,4.9285497 0.260339697,4.87873459 0.156203818,4.77779344 C0.0520679395,4.67750776 0,4.55296998 0,4.40418012 L0,2.97527301 C0,2.8356596 0.0520679395,2.7150546 0.156203818,2.61476892 C0.260339697,2.51382777 0.382048506,2.46401266 0.520679395,2.46401266 L4.58197867,2.46401266 Z" id="Fill-1" fill="#000000" mask="url(#mask-2)"></path>
            </g>
            <path d="M36.0306236,11.0504335 L36.0306236,21.917993 C36.0306236,22.0576065 35.9811591,22.1801778 35.8815791,22.2857072 C35.7813483,22.3899257 35.6583378,22.4423626 35.5105951,22.4423626 L33.4272266,22.4423626 C33.2794839,22.4423626 33.1538699,22.3899257 33.0497341,22.2857072 C32.946249,22.1801778 32.8941811,22.0576065 32.8941811,21.917993 L32.8941811,1.41514241 C32.8941811,1.26635254 32.946249,1.14443661 33.0497341,1.0480837 C33.1538699,0.952386253 33.2794839,0.904537528 33.4272266,0.904537528 L35.5105951,0.904537528 C35.6583378,0.904537528 35.7813483,0.952386253 35.8815791,1.0480837 C35.9811591,1.14443661 36.0306236,1.26635254 36.0306236,1.41514241 L36.0306236,8.40236708 L37.9577882,8.40236708 L37.9577882,1.31092395 C37.9577882,1.16213409 38.0098562,1.0395627 38.113992,0.943209785 C38.2174771,0.847512336 38.3391859,0.79900815 38.4784676,0.79900815 L40.6386362,0.79900815 C40.786379,0.79900815 40.9100404,0.847512336 41.0096203,0.943209785 C41.1098511,1.0395627 41.1599665,1.16213409 41.1599665,1.31092395 L41.1599665,22.1801778 C41.1599665,22.3289677 41.1098511,22.4515391 41.0096203,22.5472365 C40.9100404,22.6435895 40.786379,22.6914382 40.6386362,22.6914382 L38.4784676,22.6914382 C38.3391859,22.6914382 38.2174771,22.6435895 38.113992,22.5472365 C38.0098562,22.4515391 37.9577882,22.3289677 37.9577882,22.1801778 L37.9577882,11.0504335 L36.0306236,11.0504335 Z M32.8941811,17.8279103 C31.4278178,17.9767002 30.2517332,18.0946833 29.3665782,18.1818598 C28.4807724,18.2696917 27.7980315,18.332616 27.3157522,18.3719438 C26.8347746,18.4112715 26.4761567,18.4381454 26.2425018,18.4505992 C26.0081961,18.4643639 25.8083854,18.4702631 25.6437205,18.4702631 C25.4354488,18.4702631 25.2180651,18.4394563 24.9928713,18.3784984 C24.7663757,18.3175404 24.5756769,18.2297085 24.4194731,18.1163136 L23.4047991,17.3697424 C23.1177746,17.1508181 22.8880248,16.8951879 22.7148989,16.6021964 C22.5404713,16.3092049 22.4545592,15.9840958 22.4545592,15.6255581 L22.4545592,2.14925982 C22.4545592,2.00964642 22.5040238,1.88904142 22.6042546,1.78875574 C22.7031836,1.68847005 22.8274959,1.63865494 22.9745878,1.63865494 L30.3812522,1.63865494 C30.5198831,1.63865494 30.6422427,1.68847005 30.7463786,1.78875574 C30.8505145,1.88904142 30.9025824,2.00964642 30.9025824,2.14925982 L30.9025824,3.73547781 C30.9025824,3.87574667 30.8505145,3.9976626 30.7463786,4.10253651 C30.6422427,4.20806589 30.5198831,4.26050285 30.3812522,4.26050285 L25.7211716,4.26050285 L25.7211716,15.0356423 C25.7211716,15.2191716 25.7888599,15.3725497 25.9235857,15.4944657 C26.0583115,15.6170371 26.207356,15.6786505 26.3720208,15.6786505 L32.3735017,15.6786505 C32.5297055,15.6786505 32.657272,15.6255581 32.7575028,15.5206842 C32.8564318,15.4158102 32.9019913,15.2938943 32.8941811,15.1536254 L32.8941811,17.8279103 Z" id="Fill-4" fill="#000000"></path>
            <path d="M58.1594979,22.6913071 C58.0117551,22.6913071 57.8887446,22.6434584 57.7891647,22.5471055 C57.6889339,22.451408 57.6388185,22.3288366 57.6388185,22.1807022 L57.6388185,1.31079286 C57.6388185,1.16200299 57.6889339,1.0394316 57.7891647,0.943078693 C57.8887446,0.847381244 58.0117551,0.79953252 58.1594979,0.79953252 L60.5936741,0.79953252 C60.7323049,0.79953252 60.8546646,0.847381244 60.9588005,0.943078693 C61.0629364,1.0394316 61.1150043,1.16200299 61.1150043,1.31079286 L61.1150043,7.6556648 C61.1150043,7.78675719 61.1670722,7.90277396 61.2705573,8.00305965 C61.3746931,8.10334533 61.4924969,8.15316044 61.6220159,8.15316044 L63.6786995,8.15316044 C63.8264422,8.15316044 63.9520561,8.20166463 64.0568429,8.29736207 C64.1609788,8.39437045 64.2130467,8.51628638 64.2130467,8.66507624 L64.2130467,10.4734958 C64.2130467,10.6137647 64.1609788,10.7337142 64.0568429,10.8339999 C63.9520561,10.9342856 63.8264422,10.9854116 63.6786995,10.9854116 L61.6220159,10.9854116 C61.4924969,10.9854116 61.3746931,11.0352268 61.2705573,11.1355124 C61.1670722,11.2357981 61.1150043,11.3609914 61.1150043,11.5091258 L61.1150043,22.1807022 C61.1150043,22.3288366 61.0629364,22.451408 60.9588005,22.5471055 C60.8546646,22.6434584 60.7323049,22.6913071 60.5936741,22.6913071 L58.1594979,22.6913071 Z M50.5705957,11.8106383 L43.9709844,11.8106383 C43.8238924,11.8106383 43.6995802,11.7608232 43.6006512,11.659882 C43.5004204,11.5602518 43.450305,11.4396468 43.450305,11.2993779 L43.450305,9.72692465 C43.450305,9.57813478 43.5004204,9.453597 43.6006512,9.35265586 C43.6995802,9.25237018 43.8238924,9.2018996 43.9709844,9.2018996 L50.5705957,9.2018996 L50.5705957,4.91583374 C50.5705957,4.72312791 50.5120193,4.56843889 50.3948664,4.44980027 C50.2783644,4.33181711 50.1325742,4.27282554 49.9587974,4.27282554 L43.8928825,4.27282554 C43.7542516,4.27282554 43.6331936,4.21842219 43.5290577,4.10896004 C43.424271,3.99949789 43.3722031,3.87102734 43.3722031,3.72289294 L43.3722031,2.14912873 C43.3722031,2.00951533 43.424271,1.88956579 43.5290577,1.78862464 C43.6331936,1.68833896 43.7542516,1.63852385 43.8928825,1.63852385 L50.8439524,1.63852385 C51.0353021,1.63852385 51.2416213,1.66933056 51.46291,1.73028853 C51.6841988,1.79124649 51.8683891,1.8738347 52.0161319,1.97870862 L53.0705076,2.76591845 C53.3653424,2.96648982 53.5944413,3.21359898 53.759757,3.50593502 C53.9250727,3.79958199 54.0077306,4.1201029 54.0077306,4.46946413 L54.0077306,16.0187042 C54.0077306,16.3772419 53.9335337,16.6879308 53.785791,16.9494602 C53.638699,17.2123004 53.4258713,17.4653087 53.1486096,17.7097961 L51.4694185,19.2311233 C51.3041028,19.3792577 51.113404,19.4139972 50.8960203,19.3359972 C50.6792875,19.2573418 50.5705957,19.0823334 50.5705957,18.8109722 L50.5705957,11.8106383 Z" id="Fill-6" fill="#000000"></path>
            <path d="M70.0304674,4.31208771 L70.0304674,10.107027 C70.0304674,10.2813799 70.0916472,10.427548 70.213356,10.5461866 C70.334414,10.6635143 70.4815059,10.7225058 70.6559335,10.7225058 L82.1883313,10.7225058 C82.3354232,10.7225058 82.4603863,10.7729764 82.5593153,10.8739176 C82.6595461,10.9742032 82.7090107,11.1026738 82.7090107,11.2606401 L82.7090107,12.9117488 C82.7090107,13.0520177 82.6595461,13.1745891 82.5593153,13.279463 C82.4603863,13.3843369 82.3354232,13.4367739 82.1883313,13.4367739 L69.7187106,13.4367739 C69.518249,13.4367739 69.3060722,13.4033453 69.0808784,13.3384546 C68.8543828,13.2729084 68.6727959,13.1870429 68.534165,13.0828244 L67.4667722,12.2825053 C67.1888596,12.073413 66.9675709,11.823682 66.8022552,11.5359342 C66.6375903,11.2468754 66.5555833,10.9329091 66.5555833,10.5914134 L66.5555833,2.16282789 C66.5555833,2.00486155 66.6050478,1.87376915 66.7052786,1.76889524 C66.8048586,1.66402132 66.9330759,1.61223982 67.0886288,1.61223982 L82.0327783,1.61223982 C82.1883313,1.61223982 82.3165486,1.66402132 82.4167794,1.76889524 C82.5163593,1.87376915 82.5658238,2.00486155 82.5658238,2.16282789 L82.5658238,3.78771813 C82.5658238,3.91881052 82.5163593,4.03941553 82.4167794,4.14822221 C82.3165486,4.25768436 82.1883313,4.31208771 82.0327783,4.31208771 L70.0304674,4.31208771 Z M64.6551035,20.2666877 C64.5151709,20.2666877 64.3921604,20.2162171 64.2841194,20.115276 C64.1747768,20.0149903 64.1214071,19.891108 64.1214071,19.7416626 L64.1214071,18.1030077 C64.1214071,17.9542178 64.1747768,17.8303355 64.2841194,17.7300498 C64.3921604,17.6291087 64.5151709,17.5786381 64.6551035,17.5786381 L84.4663036,17.5786381 C84.6133955,17.5786381 84.7396603,17.6291087 84.8437962,17.7300498 C84.9479321,17.8303355 85,17.9542178 85,18.1030077 L85,19.7416626 C85,19.891108 84.9479321,20.0149903 84.8437962,20.115276 C84.7396603,20.2162171 84.6133955,20.2666877 84.4663036,20.2666877 L64.6551035,20.2666877 Z" id="Fill-8" fill="#000000"></path>
            <path d="M2.08284775,35.3684661 L18.7836393,35.3684661 C18.9313821,35.3684661 19.056996,35.3134073 19.160481,35.2046006 C19.2646169,35.0951385 19.3166849,34.9791217 19.3166849,34.8572058 L19.3166849,33.2447693 C19.3166849,33.0959794 19.2646169,32.9714416 19.160481,32.8705005 C19.056996,32.7702148 18.9313821,32.7203997 18.7836393,32.7203997 L12.1449771,32.7203997 L12.1449771,30.6878121 C12.1449771,30.5305012 12.0948617,30.4020307 11.9946309,30.301745 C11.8957018,30.2008039 11.7720404,30.1509888 11.6242977,30.1509888 L9.19012149,30.1509888 C9.05083975,30.1509888 8.93043264,30.2008039 8.82564591,30.301745 C8.72151003,30.4020307 8.66944209,30.5305012 8.66944209,30.6878121 L8.66944209,32.7203997 L2.08284775,32.7203997 C1.93445412,32.7203997 1.81144361,32.7702148 1.71186368,32.8705005 C1.6116329,32.9714416 1.56216835,33.0959794 1.56216835,33.2447693 L1.56216835,34.8572058 C1.56216835,34.9791217 1.6116329,35.0951385 1.71186368,35.2046006 C1.81144361,35.3134073 1.93445412,35.3684661 2.08284775,35.3684661" id="Fill-10" fill="#000000"></path>
            <g id="Group-14" transform="translate(0.000000, 36.232955)">
                <mask id="mask-4" fill="white">
                    <use xlink:href="#path-3"></use>
                </mask>
                <g id="Clip-13"></g>
                <path d="M6.8669802,5.61140999 C6.5669387,5.31448571 6.41789422,4.96905725 6.41789422,4.57578006 C6.41789422,4.18184741 6.5669387,3.83707441 6.8669802,3.54015014 C7.16572,3.24322586 7.61285343,3.00857047 8.20772964,2.83880582 C8.801955,2.66838571 9.5328587,2.58317565 10.4010916,2.58317565 C11.2855957,2.58317565 12.0230079,2.66838571 12.6133282,2.83880582 C13.2036484,3.00857047 13.6488293,3.24322586 13.9475691,3.54015014 C14.2476106,3.83707441 14.3966551,4.18184741 14.3966551,4.57578006 C14.3966551,4.96905725 14.2476106,5.31448571 13.9475691,5.61140999 C13.6488293,5.90833426 13.2036484,6.14430057 12.6133282,6.31930892 C12.0230079,6.49431727 11.2855957,6.58083825 10.4010916,6.58083825 C9.5328587,6.58083825 8.801955,6.49431727 8.20772964,6.31930892 C7.61285343,6.14430057 7.16572,5.90833426 6.8669802,5.61140999 M20.7229097,11.7006518 C20.6187739,11.6003661 20.49316,11.5498955 20.3454172,11.5498955 L12.1447167,11.5498955 L12.1447167,9.07880384 C13.0168547,8.98441732 13.805684,8.8244846 14.487774,8.57999728 C15.5987736,8.18278732 16.4403217,7.63678749 17.0137199,6.94134234 C17.5858164,6.2472081 17.8721901,5.45868734 17.8721901,4.57578006 C17.8721901,3.70204925 17.5858164,2.91746126 17.0137199,2.22267156 C16.4403217,1.52788187 15.5987736,0.983192966 14.487774,0.590571241 C13.3767743,0.196638593 12.0145469,0 10.4010916,0 C8.79544651,0 7.43907668,0.196638593 6.33328382,0.590571241 C5.22618925,0.983192966 4.38659373,1.52788187 3.81449725,2.22267156 C3.24174991,2.91746126 2.9547254,3.70204925 2.9547254,4.57578006 C2.9547254,5.45868734 3.24174991,6.2472081 3.81449725,6.94134234 C4.38659373,7.63678749 5.22618925,8.18278732 6.33328382,8.57999728 C7.01667552,8.82645098 7.80745735,8.98703917 8.68219874,9.08077023 L8.68219874,11.5498955 L0.534217059,11.5498955 C0.394935321,11.5498955 0.270623115,11.6003661 0.162582141,11.7006518 C0.0538903174,11.8009374 -0.000130169849,11.9254752 -0.000130169849,12.0736096 L-0.000130169849,13.6998108 C-0.000130169849,13.8479452 0.0538903174,13.9731384 0.162582141,14.0734241 C0.270623115,14.1737098 0.394935321,14.2241804 0.534217059,14.2241804 L20.3454172,14.2241804 C20.49316,14.2241804 20.6187739,14.1737098 20.7229097,14.0734241 C20.8270456,13.9731384 20.8791136,13.8479452 20.8791136,13.6998108 L20.8791136,12.0736096 C20.8791136,11.9254752 20.8270456,11.8009374 20.7229097,11.7006518" id="Fill-12" fill="#000000" mask="url(#mask-4)"></path>
            </g>
            <g id="Group-17" transform="translate(22.362920, 30.950587)">
                <mask id="mask-6" fill="white">
                    <use xlink:href="#path-5"></use>
                </mask>
                <g id="Clip-16"></g>
                <path d="M16.1286951,11.54924 C15.9894134,11.54924 15.8683554,11.4948367 15.7635687,11.3853745 C15.6594328,11.2759124 15.6073649,11.1520301 15.6073649,11.0117612 L15.6073649,0.511260342 C15.6073649,0.363125935 15.6594328,0.239899084 15.7635687,0.144201635 C15.8683554,0.0478487243 15.9894134,0 16.1286951,0 L18.2758468,0 C18.4229387,0 18.5472509,0.0478487243 18.6468308,0.144201635 C18.7464108,0.239899084 18.797177,0.363125935 18.797177,0.511260342 L18.797177,11.0117612 C18.797177,11.1520301 18.7464108,11.2759124 18.6468308,11.3853745 C18.5472509,11.4948367 18.4229387,11.54924 18.2758468,11.54924 L16.1286951,11.54924 Z M11.039054,6.9610062 L9.26809323,6.9610062 C9.12035045,6.9610062 8.99473654,6.90660285 8.89060066,6.7971407 C8.78646479,6.68767855 8.73439685,6.559208 8.73439685,6.41041814 L8.73439685,4.74554471 C8.73439685,4.59741031 8.78646479,4.47221707 8.89060066,4.37193139 C8.99473654,4.27099024 9.12035045,4.22051967 9.26809323,4.22051967 L11.039054,4.22051967 L11.039054,0.615478796 C11.039054,0.46734439 11.091122,0.344773 11.1952578,0.249075551 C11.2987429,0.152722641 11.4204517,0.104873916 11.5590826,0.104873916 L13.5383151,0.104873916 C13.6945189,0.104873916 13.8220854,0.152722641 13.9216653,0.249075551 C14.0218961,0.344773 14.0720115,0.46734439 14.0720115,0.615478796 L14.0720115,11.0117612 C14.0720115,11.1520301 14.0218961,11.2759124 13.9216653,11.3853745 C13.8220854,11.4948367 13.6945189,11.54924 13.5383151,11.54924 L11.5590826,11.54924 C11.4204517,11.54924 11.2987429,11.4948367 11.1952578,11.3853745 C11.091122,11.2759124 11.039054,11.1520301 11.039054,11.0117612 L11.039054,6.9610062 Z M6.13099987,18.4578093 L6.13099987,18.9946326 C6.13099987,19.1788174 6.1895763,19.3341619 6.30672917,19.4600106 C6.42453288,19.5871703 6.56902141,19.6500946 6.74279816,19.6500946 L18.6533393,19.6500946 C18.7919702,19.6500946 18.9110756,19.6985988 19.0119572,19.7949517 C19.1108863,19.8913046 19.1610017,20.0132205 19.1610017,20.1620104 L19.1610017,21.5378251 C19.1610017,21.6689175 19.1108863,21.7875561 19.0119572,21.8917746 C18.9110756,21.9966485 18.7919702,22.0497409 18.6533393,22.0497409 L5.79255827,22.0497409 C5.5933984,22.0497409 5.38252324,22.0189342 5.1612345,21.9579762 C4.94059661,21.8963628 4.75510457,21.8137746 4.60801264,21.7089007 L3.55428772,20.9348001 C3.2672632,20.7257077 3.04402191,20.4785985 2.88326215,20.1941281 C2.72250239,19.910313 2.64244793,19.5897921 2.64244793,19.2312544 L2.64244793,16.7005157 C2.64244793,16.5523813 2.69451587,16.4278435 2.7993026,16.3275578 C2.90343847,16.2272722 3.02384558,16.1768016 3.16312732,16.1768016 L15.321642,16.1768016 L15.321642,15.049407 L3.15076119,15.049407 C3.01994049,15.049407 2.90343847,14.99697 2.7993026,14.8920961 C2.69451587,14.7865667 2.64244793,14.669239 2.64244793,14.5381467 L2.64244793,13.1741303 C2.64244793,13.0259959 2.69451587,12.8994917 2.7993026,12.7939623 C2.90343847,12.6890884 3.01994049,12.6373069 3.15076119,12.6373069 L18.2758468,12.6373069 C18.4229387,12.6373069 18.5472509,12.687122 18.6468308,12.7880632 C18.7464108,12.8883489 18.797177,13.0128866 18.797177,13.1616765 L18.797177,17.9327842 C18.797177,18.0730531 18.7464108,18.1956245 18.6468308,18.3004984 C18.5472509,18.4053723 18.4229387,18.4578093 18.2758468,18.4578093 L6.13099987,18.4578093 Z M3.39743305,7.03966163 L3.39743305,8.03596384 C3.39743305,8.21949319 3.45796203,8.37221583 3.57967084,8.49478722 C3.70137965,8.61670315 3.84912243,8.67831658 4.02224832,8.67831658 L9.21602529,8.67831658 C9.37222911,8.67831658 9.49784301,8.73009807 9.59351785,8.83497199 C9.68854184,8.94050137 9.73735553,9.06307276 9.73735553,9.20268616 L9.73735553,10.2776438 C9.73735553,10.4257782 9.68528759,10.5483496 9.58050086,10.6447025 C9.47636498,10.7410554 9.35465618,10.7934924 9.21602529,10.8013579 C8.06141873,10.9245848 7.12745006,11.0202822 6.41086505,11.0904167 C5.69493088,11.1598956 5.13520053,11.2169208 4.731674,11.2608368 C4.32814747,11.3047527 4.02029578,11.3309712 3.80746807,11.3394922 C3.59464037,11.3480132 3.41956192,11.351946 3.28093104,11.351946 C3.0544355,11.351946 2.82273317,11.326383 2.5838715,11.273946 C2.34500982,11.221509 2.14389741,11.1290889 1.97923255,10.998652 L0.911188941,10.2245514 C0.616354234,10.0062825 0.390509546,9.7552406 0.234305728,9.47142557 C0.0787527585,9.18695507 0,8.8657787 0,8.507241 L0,1.07495764 C0,0.935344241 0.0501153917,0.814739237 0.149695326,0.714453555 C0.249926109,0.61351241 0.377492561,0.563041838 0.53369638,0.563041838 L8.01846268,0.563041838 C8.16620546,0.563041838 8.28791427,0.61351241 8.3835891,0.714453555 C8.47861309,0.814739237 8.52612509,0.935344241 8.52612509,1.07495764 L8.52612509,2.52942777 C8.52612509,2.6788731 8.47861309,2.80275541 8.3835891,2.90369656 C8.28791427,3.00398224 8.16620546,3.05445281 8.01846268,3.05445281 L3.39743305,3.05445281 L3.39743305,4.6406708 L7.10727374,4.6406708 C7.25436567,4.6406708 7.37672532,4.68851952 7.47174931,4.78487243 C7.56742415,4.88056988 7.615587,5.00314127 7.615587,5.15127568 L7.615587,6.51463659 C7.615587,6.66408192 7.56742415,6.78796423 7.47174931,6.88890538 C7.37672532,6.98919106 7.25436567,7.03966163 7.10727374,7.03966163 L3.39743305,7.03966163 Z" id="Fill-15" fill="#000000" mask="url(#mask-6)"></path>
            </g>
            <path d="M50.2844824,38.46205 C50.9444435,38.46205 51.4794416,38.3552097 51.8927309,38.1408736 C52.3047184,37.927193 52.6099667,37.6361679 52.8097774,37.2691092 C53.0095882,36.9020505 53.1091681,36.5087733 53.1091681,36.0892776 C53.1091681,35.6520845 53.0095882,35.2529081 52.8097774,34.8897822 C52.6099667,34.5273117 52.3047184,34.2389085 51.8927309,34.0239169 C51.4794416,33.8102363 50.9444435,33.703396 50.2844824,33.703396 C49.642745,33.703396 49.1110012,33.8102363 48.6899017,34.0239169 C48.2688023,34.2389085 47.9609506,34.5273117 47.7656958,34.8897822 C47.570441,35.2529081 47.4728136,35.6520845 47.4728136,36.0892776 C47.4728136,36.5087733 47.570441,36.9020505 47.7656958,37.2691092 C47.9609506,37.6361679 48.2688023,37.927193 48.6899017,38.1408736 C49.1110012,38.3552097 49.642745,38.46205 50.2844824,38.46205 L50.2844824,38.46205 Z M50.2844824,41.0701332 C48.904682,41.0701332 47.752028,40.8479316 46.827822,40.4022174 C45.904267,39.9565033 45.2124142,39.3580665 44.7522638,38.6062516 C44.2921134,37.8544367 44.0617128,37.0154454 44.0617128,36.0892776 C44.0617128,35.1978493 44.2921134,34.3745891 44.7522638,33.6175305 C45.2124142,32.8624383 45.904267,32.2548251 46.827822,31.7960017 C47.752028,31.3371783 48.904682,31.1077666 50.2844824,31.1077666 C51.6727438,31.1077666 52.824747,31.3371783 53.7411427,31.7960017 C54.6562367,32.2548251 55.3480895,32.8624383 55.8167009,33.6175305 C56.2859632,34.3745891 56.5196181,35.1978493 56.5196181,36.0892776 C56.5196181,37.0154454 56.2859632,37.8544367 55.8167009,38.6062516 C55.3480895,39.3580665 54.6562367,39.9565033 53.7411427,40.4022174 C52.824747,40.8479316 51.6727438,41.0701332 50.2844824,41.0701332 L50.2844824,41.0701332 Z M48.7745121,45.3044176 L43.6842202,45.5672578 C43.5455893,45.5764343 43.4225788,45.5253083 43.313887,45.4158461 C43.2051952,45.3070394 43.1511747,45.1825016 43.1511747,45.0428882 L43.1511747,43.1813762 C43.1511747,43.0411074 43.2051952,42.9191914 43.313887,42.8143175 C43.4225788,42.7087881 43.5455893,42.6563512 43.6842202,42.6563512 L58.2118262,42.6563512 C58.350457,42.6563512 58.4721659,42.6130907 58.5763017,42.5259142 C58.6804376,42.4380823 58.7325056,42.3253429 58.7325056,42.185074 L58.7325056,31.4617161 C58.7325056,31.3214472 58.7852243,31.2014977 58.8893602,31.101212 C58.9928453,31.0009263 59.1139032,30.9504557 59.2531849,30.9504557 L61.7003781,30.9504557 C61.839009,30.9504557 61.960067,31.0009263 62.0648537,31.101212 C62.1689896,31.2014977 62.2210575,31.3214472 62.2210575,31.4617161 L62.2210575,52.3316254 C62.2210575,52.4712388 62.1689896,52.5918438 62.0648537,52.6921295 C61.960067,52.7924152 61.839009,52.8422303 61.7003781,52.8422303 L59.2531849,52.8422303 C59.1139032,52.8422303 58.9928453,52.7924152 58.8893602,52.6921295 C58.7852243,52.5918438 58.7325056,52.4712388 58.7325056,52.3316254 L58.7325056,44.8069219 L52.2630641,45.1477622 L52.2630641,52.3316254 C52.2630641,52.4712388 52.2129487,52.5918438 52.1140196,52.6921295 C52.013138,52.7924152 51.8855715,52.8422303 51.7300185,52.8422303 L49.3082085,52.8422303 C49.1695776,52.8422303 49.0459163,52.7924152 48.9372244,52.6921295 C48.8291835,52.5918438 48.7745121,52.4712388 48.7745121,52.3316254 L48.7745121,45.3044176 Z" id="Fill-18" fill="#000000"></path>
            <path d="M79.0648407,41.3066894 L67.0755468,41.3066894 C66.9369159,41.3066894 66.8158579,41.2522861 66.711722,41.1428239 C66.6075861,41.0333618 66.5555182,40.9134122 66.5555182,40.7823198 L66.5555182,39.1043372 C66.5555182,38.9470263 66.6075861,38.8205221 66.711722,38.7241692 C66.8158579,38.6278163 66.9369159,38.5799676 67.0755468,38.5799676 L79.0648407,38.5799676 L79.0648407,35.0929099 C79.0648407,34.9093805 79.0062642,34.7586243 78.8891114,34.6406411 C78.7713077,34.522658 78.6300734,34.4636664 78.4660594,34.4636664 L67.0755468,34.4636664 C66.9369159,34.4636664 66.8158579,34.4112294 66.711722,34.3063555 C66.6075861,34.2014816 66.5555182,34.0834984 66.5555182,33.952406 L66.5555182,32.2482049 C66.5555182,32.1171125 66.6075861,31.997163 66.711722,31.8877008 C66.8158579,31.7788941 66.9369159,31.7238353 67.0755468,31.7238353 L79.4156484,31.7238353 C79.6154591,31.7238353 79.8263343,31.7592303 80.047623,31.8287092 C80.2689118,31.8981882 80.4531021,31.9774991 80.600194,32.0646755 L81.6552207,32.8643392 C81.9507062,33.074087 82.1778526,33.3251289 82.3379615,33.6181204 C82.4980704,33.9111119 82.5794266,34.2322883 82.5794266,34.5816495 L82.5794266,45.7769401 C82.5794266,45.9165535 82.5286603,46.0391249 82.4297313,46.1439988 C82.3295005,46.2488727 82.2058391,46.3013097 82.0587472,46.3013097 L79.5848692,46.3013097 C79.4553502,46.3013097 79.3355939,46.2488727 79.227553,46.1439988 C79.1182103,46.0391249 79.0648407,45.9165535 79.0648407,45.7769401 L79.0648407,41.3066894 Z M64.6550384,50.4176109 C64.5157567,50.4176109 64.3920953,50.3671403 64.2840543,50.2668546 C64.1747117,50.166569 64.121342,50.0420312 64.121342,49.8932413 L64.121342,48.2545864 C64.121342,48.1057965 64.1747117,47.9819142 64.2840543,47.8809731 C64.3920953,47.7806874 64.5157567,47.7302168 64.6550384,47.7302168 L84.4662385,47.7302168 C84.6133305,47.7302168 84.7395952,47.7806874 84.8437311,47.8809731 C84.947867,47.9819142 84.9999349,48.1057965 84.9999349,48.2545864 L84.9999349,49.8932413 C84.9999349,50.0420312 84.947867,50.166569 84.8437311,50.2668546 C84.7395952,50.3671403 84.6133305,50.4176109 84.4662385,50.4176109 L64.6550384,50.4176109 Z" id="Fill-20" fill="#000000"></path>
        </g>
    </g>
</svg>